<svg width="210" height="69" viewBox="0 0 210 69" fill="none" xmlns="http://www.w3.org/2000/svg">
<g clip-path="url(#clip0)">
<path d="M30.3379 33.3043C28.7143 33.3043 26.967 33.175 24.8153 33.175C22.2703 33.175 19.8601 33.3043 18.287 33.3043V31.6188C21.2197 31.4447 21.877 31.1806 21.877 30.2143C21.877 29.3379 21.4388 28.203 19.3825 22.7647H8.32607C6.74175 26.9951 6.17994 28.9671 6.17994 29.8435C6.17994 30.9671 6.83726 31.1581 9.81487 31.5289L9.76992 33.3267C8.28112 33.3267 6.17994 33.1975 4.25292 33.1975C2.56748 33.1975 1.00564 33.3267 0 33.3267V31.6413C2.53939 31.1132 2.93828 30.675 4.64619 25.7703C7.75864 16.8544 11.0452 7.53952 11.0452 6.79231C11.0452 6.17994 10.5171 6.00577 7.49458 5.52261V3.76976C8.41596 3.8147 9.24744 3.8147 9.98903 3.8147C12.0944 3.83337 14.1991 3.7302 16.2926 3.50571L16.6409 3.76976C17.8656 7.44963 21.8096 17.2533 25.4052 26.467C27.158 31.0289 27.467 31.2031 30.3997 31.6413L30.3379 33.3043ZM18.5791 20.5961L13.5846 7.67436L9.09013 20.5961H18.5791Z" fill="#A9EDD7"/>
<path d="M42.2876 1.18542C44.9952 0.942599 47.6868 0.546825 50.3497 0L50.6586 0.219107C50.5238 6.26421 50.4395 18.0117 50.4395 27.6974C50.4395 30.939 51.0014 31.3323 54.0745 31.5514L54.0295 33.0852C50.2204 33.0852 48.9732 33.6975 47.8496 33.8324C47.1286 32.795 46.6786 31.5937 46.5406 30.3379C44.6529 31.6525 42.945 32.8773 41.282 34.0627C38.737 33.8885 36.4167 33.0121 34.7481 31.0402C33.2593 29.2143 32.3829 26.6861 32.3829 22.877C32.3829 16.6072 34.3548 15.0116 36.6807 13.7588C39.4392 12.225 40.8831 11.7981 42.5966 11.7981C43.8865 11.8045 45.1689 11.9936 46.4057 12.3599L46.3215 6.61815C46.2765 3.11244 46.0574 2.89334 42.3326 2.71917L42.2876 1.18542ZM46.4507 15.8206C44.6126 14.9496 42.613 14.4712 40.5797 14.4161C39.1302 14.4161 38.2538 14.7701 37.5965 15.9049C36.8549 17.2196 36.4729 19.6354 36.4729 22.0455C36.4729 25.1973 36.9954 27.1018 38.0066 28.394C38.4933 29.0252 39.1192 29.5356 39.8354 29.8855C40.5516 30.2353 41.3389 30.4151 42.1359 30.4109C43.9731 30.4109 45.2034 29.4952 46.4731 28.5289L46.4507 15.8206Z" fill="#A9EDD7"/>
<path d="M57.5352 19.6634L57.7993 13.961C62.0073 12.6071 63.85 11.6407 65.513 11.6407C66.6366 11.6407 67.9232 12.079 69.5468 12.7644C71.912 13.815 72.5693 14.4498 72.5693 16.6184C72.5693 19.2477 72.4345 24.8995 72.4345 28.4165C72.4345 30.9165 72.9626 31.3997 75.6818 31.7087L75.6368 33.1469C73.6515 33.1904 71.6731 33.3952 69.7209 33.7593C69.0289 32.8334 68.6368 31.7179 68.5973 30.5626C66.7153 31.7424 65.0916 32.9278 63.3837 34.0234C58.0352 33.8043 56.1532 32.6638 56.1532 28.3266C56.1532 25.7872 56.715 24.2085 59.2207 23.1972C61.7264 22.186 64.7826 21.5118 68.4681 20.7028L68.4232 18.5117C68.4232 17.1072 68.1591 16.2645 65.9231 15.2644C64.9827 14.7771 63.9557 14.4793 62.9005 14.388C61.496 14.388 61.1477 15.6184 59.1757 19.6915L57.5352 19.6634ZM68.4513 22.332C64.8556 23.2534 62.8331 23.9107 61.6589 24.613C60.4847 25.3153 60.3443 26.1917 60.3443 27.5513C60.3443 28.9109 60.6027 29.6525 61.1308 30.0457C61.8841 30.5775 62.7943 30.8406 63.7152 30.7929C65.4006 30.7929 66.3894 30.1356 68.4906 28.776L68.4513 22.332Z" fill="#A9EDD7"/>
<path d="M77.8729 12.7532C80.514 12.4992 83.1396 12.1035 85.7382 11.5677L85.9574 11.7981C85.8253 12.8602 85.7652 13.9301 85.7776 15.0004C89.2833 12.9386 90.7328 11.534 92.0474 11.534C93.171 11.534 95.07 12.5902 96.7779 13.506C98.0082 14.1633 98.1824 14.9555 98.1824 16.6634C98.1824 20.5624 98.0532 26.6973 98.0532 28.9334C98.0532 31.0795 98.4015 31.4784 101.34 31.8267L101.295 33.3155C100.418 33.3155 98.1824 33.1863 96.0363 33.1863C94.1486 33.1863 92.1036 33.3155 91.0811 33.3155V31.8155C94.0643 31.4222 94.1036 31.0683 94.1036 28.748C94.1036 27.2142 94.0643 20.377 93.9744 18.4949C93.9295 17.1802 93.7553 16.742 92.9688 16.2139C92.082 15.5313 91.0167 15.1196 89.9013 15.0285C88.89 15.0285 87.654 15.6465 85.7776 16.9162C85.7382 20.1129 85.6933 26.0737 85.6933 28.5738C85.6933 30.984 85.9574 31.5065 88.89 31.8155L88.8451 33.3043C87.7945 33.3043 85.6034 33.175 83.5472 33.175C81.7494 33.175 79.6875 33.3043 78.6819 33.3043L78.6538 31.8155C81.328 31.5065 81.7662 31.2537 81.7662 28.9221C81.7662 26.2479 81.6314 20.332 81.5921 17.0904C81.5921 14.9892 81.1539 14.4161 77.9066 14.2813L77.8729 12.7532Z" fill="#A9EDD7"/>
<path d="M31.2986 39.6583C27.967 40.2763 27.4839 40.2763 27.4839 42.5067C27.4839 45.445 27.3996 60.6533 27.3996 63.0635C27.3996 65.3107 27.8771 65.2545 31.2087 65.9119L31.1637 67.5973C29.1075 67.5973 27.231 67.4681 25.2085 67.4681C23.3658 67.4681 21.1747 67.5973 19.287 67.5973L19.2477 65.9119C22.8377 65.2545 23.1017 65.2995 23.1017 62.7545C23.1017 61.1758 23.1017 56.4453 23.0568 53.0239C21.259 53.2036 20.3432 53.4228 19.1241 53.4228C16.315 53.4228 13.6914 53.2879 11.152 53.2879C10.1856 53.2879 9.21932 53.2879 8.25862 53.3329C8.25862 56.6644 8.21368 61.3949 8.21368 63.0185C8.21368 65.2995 8.74178 65.2096 12.1464 65.9119L12.1014 67.5973C9.9553 67.5973 8.02828 67.4681 6.05632 67.4681C4.08435 67.4681 2.3315 67.5973 0.314589 67.5973L0.269644 65.9119C3.5113 65.2545 3.99446 65.2995 3.99446 63.1028C3.99446 60.6926 3.91019 45.3495 3.86525 42.591C3.86525 40.2707 3.47198 40.31 0.0954821 39.6527L0.0505371 37.9673C1.73598 37.9673 4.30346 38.1021 6.01137 38.1021C7.89344 38.1021 10.2643 37.9673 12.1913 37.9673L12.1464 39.6527C8.73055 40.3999 8.3766 40.1808 8.33166 42.591L8.24739 51.1249C9.93282 50.9957 11.0564 50.6867 12.4104 50.6867C14.9948 50.6867 17.4948 50.7766 20.3882 50.7766C21.2196 50.7766 22.1354 50.7317 23.0568 50.7317L23.0343 42.5067C23.0343 40.1864 22.641 40.2595 19.2252 39.6583L19.1803 37.9729C21.4275 37.9729 23.4781 38.1077 25.2703 38.1077C26.9557 38.1077 29.2592 37.9729 31.366 37.9729L31.2986 39.6583Z" fill="#A9EDD7"/>
<path d="M52.3329 63.0185C50.5221 64.4903 48.8758 66.1536 47.4226 67.9794C46.4478 68.0996 45.4665 68.1597 44.4844 68.1591C37.8269 68.1591 34.5796 65.44 34.5796 56.9229C34.5796 52.0576 35.4616 50.4396 38.001 48.726C41.0685 46.6698 42.4281 46.0125 44.445 46.0125C46.2837 45.9783 48.0831 46.5465 49.5688 47.6305C51.7598 49.3159 52.2879 51.8385 52.2879 55.2992V56.1813C50.6643 56.3161 48.7373 56.3161 38.7033 56.4004V57.3049C38.7033 62.1253 40.1472 64.7096 44.6192 64.7096C46.8103 64.7096 48.7822 64.0972 51.4115 61.7769L52.3329 63.0185ZM46.5911 54.3385C47.8608 54.3385 47.9507 54.3385 47.9507 53.5071C47.9507 50.6587 46.5013 48.9058 42.9955 48.9058C41.1977 48.9058 40.237 49.389 39.664 50.1362C38.9224 51.125 38.7651 52.5464 38.7033 54.2992C41.3326 54.3385 45.4057 54.3385 46.5911 54.3385Z" fill="#A9EDD7"/>
<path d="M55.1756 47.0237C57.8182 46.7814 60.4444 46.3856 63.041 45.8383L63.3051 46.1023C63.1758 47.3271 63.1758 48.5125 63.1309 49.5631C66.8557 46.6698 67.9793 45.754 69.6648 45.754C70.2152 45.7661 70.7614 45.8531 71.2884 46.0125L71.0693 52.1475L69.6648 52.1924C69.1367 50.2204 68.5412 49.5182 67.1198 49.5182C65.94 49.5182 64.8444 50.0463 63.1309 51.7092C63.1309 55.3947 63.086 60.0803 63.086 62.5803C63.086 65.6029 63.395 65.6928 68.4794 66.086L68.4344 67.5748C66.9007 67.5748 63.0466 67.4456 60.9848 67.4456C59.2319 67.4456 56.9959 67.5748 55.7711 67.5748L55.7262 66.086C58.8836 65.6478 59.142 65.8669 59.142 62.232C59.142 60.6533 59.0578 54.0801 58.9679 51.4059C58.8836 49.1586 58.5746 48.6867 55.243 48.5575L55.1756 47.0237Z" fill="#A9EDD7"/>
<path d="M74.2379 47.0237C76.8791 46.7699 79.5046 46.3742 82.1033 45.8383L82.3617 46.0574C82.2344 47.12 82.1762 48.1896 82.1876 49.2597C85.6933 47.1979 87.1427 45.7934 88.4574 45.7934C89.581 45.7934 91.4799 46.8496 93.1878 47.7653C94.4182 48.4226 94.5924 49.2148 94.5924 50.9227C94.5924 54.8217 94.4576 60.9567 94.4576 63.1927C94.4576 65.3388 94.8115 65.7377 97.7441 66.086L97.7048 67.5748C96.8284 67.5748 94.5924 67.4456 92.4406 67.4456C90.5586 67.4456 88.508 67.5748 87.4911 67.5748V66.086C90.4687 65.6928 90.5136 65.3388 90.5136 63.0185C90.5136 61.4848 90.4687 54.6475 90.3844 52.7654C90.3395 51.4508 90.1653 51.0126 89.3731 50.4845C88.4868 49.801 87.4213 49.3892 86.3056 49.2991C85.3 49.2991 84.0584 49.9171 82.1876 51.1868C82.1426 54.3835 82.1033 60.3443 82.1033 62.8444C82.1033 65.2545 82.3617 65.777 85.3 66.086L85.2551 67.5748C84.2045 67.5748 82.0134 67.4456 79.9515 67.4456C78.1594 67.4456 76.0975 67.5748 75.0919 67.5748L75.0469 66.086C77.7212 65.777 78.1594 65.5242 78.1594 63.1927C78.1594 60.5185 78.0245 54.6026 77.9796 51.3609C77.9796 49.2597 77.5414 48.6867 74.2997 48.5518L74.2379 47.0237Z" fill="#A9EDD7"/>
<path d="M101.323 53.934L101.587 48.2316C105.789 46.8777 107.632 45.9113 109.295 45.9113C110.419 45.9113 111.705 46.3496 113.329 47.035C115.694 48.0856 116.351 48.7204 116.351 50.889C116.351 53.5183 116.222 59.1701 116.222 62.6871C116.222 65.1871 116.745 65.6703 119.464 65.9793L119.419 67.4232C117.429 67.4587 115.444 67.656 113.486 68.0131C112.796 67.086 112.405 65.9712 112.363 64.8164C110.48 65.9962 108.857 67.1816 107.149 68.2771C101.806 68.058 99.9184 66.9175 99.9184 62.5803C99.9184 60.0409 100.48 58.4622 102.986 57.451C105.492 56.4397 108.553 55.7655 112.233 54.9565L112.188 52.7655C112.188 51.3609 111.924 50.5182 109.694 49.5182C108.751 49.0315 107.723 48.7338 106.666 48.6418C105.267 48.6418 104.913 49.8721 102.941 53.9453L101.323 53.934ZM112.233 56.6026C108.638 57.524 106.615 58.1813 105.441 58.8836C104.267 59.5859 104.126 60.4623 104.126 61.8219C104.126 63.1815 104.39 63.9231 104.913 64.3163C105.668 64.8481 106.58 65.1112 107.503 65.0635C109.188 65.0635 110.171 64.4062 112.278 63.0466L112.233 56.6026Z" fill="#A9EDD7"/>
<path d="M121.655 47.0237C124.296 46.7703 126.922 46.3746 129.52 45.8383L129.779 46.0686C129.651 47.1312 129.593 48.2009 129.605 49.271C133.11 47.2091 134.554 45.8046 135.869 45.8046C136.964 45.8046 138.891 46.8608 140.605 47.7766C141.83 48.4339 142.004 49.226 142.004 50.934C142.004 54.8329 141.875 60.9679 141.875 63.2039C141.875 65.3501 142.223 65.749 145.161 66.0973L145.116 67.5861C144.24 67.5861 142.004 67.4569 139.858 67.4569C137.976 67.4569 135.925 67.5861 134.908 67.5861V66.0973C137.886 65.704 137.931 65.3501 137.931 63.0298C137.931 61.496 137.886 54.6588 137.796 52.7767C137.756 51.4621 137.577 51.0238 136.79 50.4957C135.901 49.8071 134.832 49.3913 133.711 49.2991C132.706 49.2991 131.464 49.9171 129.593 51.1868C129.548 54.3835 129.503 60.3443 129.503 62.8444C129.503 65.2546 129.768 65.777 132.706 66.086L132.661 67.5748C131.61 67.5748 129.419 67.4456 127.357 67.4456C125.56 67.4456 123.503 67.5748 122.492 67.5748L122.447 66.086C125.121 65.777 125.56 65.5242 125.56 63.1927C125.56 60.5185 125.43 54.6026 125.385 51.3609C125.385 49.2597 124.947 48.6867 121.706 48.5519L121.655 47.0237Z" fill="#A9EDD7"/>
<path d="M157.544 35.456C160.251 35.2132 162.943 34.8174 165.606 34.2706L165.915 34.4897C165.785 40.5348 165.695 52.2823 165.695 61.9679C165.695 65.2096 166.257 65.6029 169.33 65.822L169.291 67.3557C165.476 67.3557 164.235 67.9681 163.111 68.1029C162.392 67.0643 161.943 65.8636 161.802 64.6085C159.914 65.9231 158.206 67.1479 156.544 68.3333C153.999 68.1591 151.678 67.2827 150.01 65.3107C148.521 63.5129 147.644 60.9679 147.644 57.1588C147.644 50.889 149.616 49.2934 151.942 48.0406C154.695 46.4956 156.145 46.0686 157.869 46.0686C159.159 46.075 160.442 46.2642 161.678 46.6304L161.594 40.8887C161.549 37.383 161.33 37.1639 157.605 36.9897L157.544 35.456ZM161.707 50.0912C159.869 49.2194 157.869 48.741 155.836 48.6867C154.392 48.6867 153.515 49.0406 152.858 50.1755C152.111 51.4901 151.734 53.9059 151.734 56.3161C151.734 59.4679 152.257 61.3724 153.268 62.6646C153.758 63.3004 154.39 63.8135 155.112 64.1636C155.834 64.5136 156.628 64.6909 157.431 64.6815C159.268 64.6815 160.499 63.7657 161.768 62.7994L161.707 50.0912Z" fill="#A9EDD7"/>
<path d="M189.449 63.0185C187.639 64.4868 185.992 66.1462 184.539 67.9681C183.564 68.0884 182.583 68.1484 181.6 68.1479C174.943 68.1479 171.696 65.4287 171.696 56.9116C171.696 52.0463 172.572 50.4283 175.117 48.7148C178.185 46.6585 179.544 46.0012 181.561 46.0012C183.4 45.967 185.199 46.5353 186.685 47.6192C188.876 49.3047 189.404 51.8272 189.404 55.288V56.1813C187.78 56.3161 185.853 56.3161 175.819 56.4004V57.3049C175.819 62.1252 177.263 64.7096 181.735 64.7096C183.926 64.7096 185.898 64.0972 188.528 61.7769L189.449 63.0185ZM183.713 54.3385C184.982 54.3385 185.072 54.3385 185.072 53.507C185.072 50.6586 183.623 48.9058 180.117 48.9058C178.319 48.9058 177.359 49.3889 176.786 50.1362C176.038 51.1249 175.847 52.5463 175.847 54.2992C178.449 54.3385 182.522 54.3385 183.713 54.3385Z" fill="#A9EDD7"/>
<path d="M193.084 54.4284C193.213 52.2823 193.258 49.2991 193.258 47.0237L193.522 46.7597C195.056 46.7597 198.427 46.8889 201.062 46.8889C203.696 46.8889 207.326 46.7597 208.927 46.7597L209.449 48.1193C205.595 55.2599 196.696 63.1927 196.696 64.1141C196.696 64.4231 197.488 64.5073 199.46 64.5073C202.792 64.5073 205.331 64.3332 206.298 63.7657C207.174 63.2826 207.871 61.8331 208.663 59.5128L210.022 59.9061C209.629 61.8781 209.056 65.6478 208.792 67.5748C206.736 67.5748 203.736 67.4456 200.556 67.4456C197.185 67.4456 194.067 67.5748 192.494 67.5748L192.011 66.395C196.786 59.2488 204.146 51.4508 204.146 50.0463C204.146 49.8272 203.14 49.7429 201.168 49.7429C198.056 49.7429 196.915 49.9171 196.258 50.4395C195.516 51.0969 195.078 52.3666 194.573 54.5183L193.084 54.4284Z" fill="#A9EDD7"/>
</g>
<defs>
<clipPath id="clip0">
<rect width="210" height="68.3221" fill="white"/>
</clipPath>
</defs>
</svg>
